<?xml version="1.0" encoding="utf-8"?>
<!-- Generator: Adobe Illustrator 15.0.0, SVG Export Plug-In . SVG Version: 6.00 Build 0)  -->
<!DOCTYPE svg PUBLIC "-//W3C//DTD SVG 1.1//EN" "http://www.w3.org/Graphics/SVG/1.1/DTD/svg11.dtd">
<svg version="1.1" id="Capa_2" xmlns="http://www.w3.org/2000/svg" xmlns:xlink="http://www.w3.org/1999/xlink" x="0px" y="0px"
	 width="56.69px" height="56.69px" viewBox="0 0 56.69 56.69" enable-background="new 0 0 56.69 56.69" xml:space="preserve">
<path fill="#0B8548" d="M44.114,19.884c0.955-0.054,1.565-0.574,1.894-1.453c0.02-0.051,0.006-0.118,0.084-0.132v-0.83
	c-0.177-0.751-0.666-1.235-1.295-1.649c-2.623-1.724-5.229-3.473-7.841-5.214c-0.84-0.56-1.674-0.549-2.509,0.014
	c-0.555,0.372-1.114,0.733-1.664,1.111c-0.414,0.283-0.504,0.679-0.255,1.035c0.229,0.329,0.642,0.385,1.039,0.125
	c0.528-0.344,1.053-0.698,1.579-1.049c0.496-0.33,0.64-0.332,1.121-0.012l4.938,3.29c1.034,0.688,2.068,1.376,3.098,2.069
	c0.432,0.289,0.519,0.716,0.234,1.057c-0.266,0.318-0.607,0.334-1.045,0.043c-2.4-1.601-4.8-3.203-7.201-4.803
	c-0.504-0.336-0.65-0.334-1.154,0.002c-2.412,1.607-4.822,3.216-7.235,4.82c-0.429,0.286-0.816,0.236-1.055-0.12
	c-0.238-0.357-0.129-0.72,0.308-1.014c0.543-0.366,1.089-0.729,1.632-1.095c0.42-0.282,0.524-0.662,0.289-1.027
	c-0.226-0.353-0.648-0.414-1.058-0.146c-0.548,0.358-1.091,0.726-1.635,1.092c-0.829,0.558-1.211,1.401-1.015,2.237
	c0.224,0.959,0.893,1.527,1.952,1.65c0.108,0.012,0.165,0.024,0.164,0.151c-0.004,0.719-0.002,1.436-0.002,2.199
	c-0.146-0.097-0.241-0.155-0.335-0.219c-1.635-1.088-3.268-2.181-4.907-3.265c-0.792-0.523-1.595-0.519-2.389,0.003
	c-0.567,0.372-1.131,0.75-1.693,1.129c-0.442,0.296-0.55,0.684-0.302,1.048c0.24,0.353,0.657,0.396,1.093,0.106
	c0.527-0.349,1.059-0.691,1.575-1.056c0.358-0.253,0.682-0.251,1.044-0.004c0.949,0.648,1.911,1.28,2.868,1.918
	c1.722,1.149,3.443,2.3,5.167,3.445c0.293,0.193,0.492,0.422,0.41,0.795c-0.102,0.456-0.627,0.714-1.181,0.34
	c-2.35-1.591-4.719-3.154-7.081-4.729c-0.672-0.448-0.734-0.449-1.41,0.002c-2.364,1.575-4.727,3.151-7.091,4.725
	c-0.439,0.292-0.817,0.255-1.059-0.096c-0.252-0.366-0.143-0.733,0.311-1.039c0.563-0.379,1.133-0.747,1.689-1.136
	c0.375-0.262,0.443-0.649,0.207-0.991c-0.217-0.315-0.624-0.396-0.976-0.168c-0.646,0.419-1.293,0.839-1.92,1.285
	c-0.706,0.503-0.994,1.396-0.759,2.238c0.228,0.813,0.945,1.417,1.798,1.482c0.224,0.018,0.281,0.088,0.28,0.308
	c-0.01,1.613-0.005,3.228-0.006,4.842c0,0.053-0.005,0.104-0.009,0.194c-0.461-0.261-0.913-0.443-1.42-0.43
	c-0.402,0.01-0.694,0.274-0.715,0.646c-0.024,0.404,0.223,0.696,0.65,0.735c0.542,0.05,0.92,0.296,1.13,0.814
	c0.176,0.434,0.528,0.585,0.95,0.407c0.495-0.208,0.95-0.185,1.338,0.195c0.388,0.387,0.402,0.846,0.207,1.34
	c-0.172,0.431-0.023,0.773,0.395,0.961c0.185,0.082,0.374,0.152,0.526,0.369h-0.371c-1.338,0-2.674-0.002-4.012,0.003
	c-0.534,0.001-0.865,0.334-0.812,0.8c0.043,0.378,0.343,0.608,0.826,0.609c1.741,0.002,3.482,0.001,5.222,0.001
	c0.058,0,0.116-0.002,0.173-0.009c0.403-0.052,0.64-0.313,0.644-0.719c0.005-0.522-0.156-0.992-0.443-1.425
	c-0.046-0.069-0.152-0.115-0.104-0.237c3.423,0,6.846,0.002,10.27-0.004c0.188-0.001,0.23,0.059,0.226,0.233
	c-0.011,0.472-0.022,0.946,0.003,1.417c0.014,0.26-0.062,0.385-0.31,0.471c-0.284,0.098-0.526,0.291-0.714,0.526
	c-0.128,0.162-0.262,0.208-0.467,0.203c-1.432-0.04-2.506,1.043-2.448,2.47c0.007,0.196-0.047,0.314-0.191,0.436
	c-0.352,0.298-0.574,0.686-0.695,1.128c-0.181,0.661-0.093,0.938,0.39,1.286h0.484c0.277-0.187,0.458-0.427,0.472-0.779
	c0.014-0.372,0.227-0.608,0.552-0.765c0.567-0.271,0.665-0.507,0.457-1.094c-0.131-0.367-0.088-0.707,0.182-0.991
	c0.268-0.282,0.601-0.362,0.978-0.244c0.712,0.222,0.837,0.167,1.176-0.51c0.018-0.036,0.048-0.066,0.127-0.175v3.028
	c0,0.066,0.009,0.129-0.092,0.149c-0.359,0.067-0.567,0.286-0.597,0.653c-0.029,0.362,0.201,0.563,0.481,0.727h16.949
	c0.103-0.155,0.287-0.234,0.36-0.424c0.146-0.373-0.017-0.787-0.416-0.921c-0.163-0.057-0.228-0.104-0.227-0.29
	c0.008-2.489,0.004-4.978,0.008-7.467c0-0.094-0.078-0.245,0.122-0.259c1.055-0.076,1.674-0.689,2.021-1.64v-0.83
	c-0.197-0.771-0.724-1.251-1.371-1.667c-1.406-0.906-2.791-1.849-4.201-2.789c0.107-0.087,0.213-0.052,0.306-0.052
	c1.44-0.003,2.879-0.013,4.317,0.005c0.42,0.005,0.73-0.124,0.949-0.478V28.33c-0.228-0.371-0.568-0.493-0.988-0.47
	c-0.287,0.017-0.577-0.015-0.863,0.009c-0.247,0.02-0.303-0.063-0.301-0.302c0.011-1.613,0.006-3.227,0.006-4.841
	c0-0.863-0.001-1.728,0.001-2.592C43.946,20.018,43.899,19.895,44.114,19.884 M29.469,29.284c0.469,0.003,0.938,0.001,1.506,0.001
	c-0.149,0.105-0.211,0.152-0.276,0.195c-0.456,0.303-0.912,0.604-1.42,0.941c0-0.355,0.007-0.669-0.002-0.981
	C29.271,29.284,29.357,29.283,29.469,29.284 M22.167,36.067c-0.748-0.015-1.498-0.015-2.246,0c-0.223,0.004-0.264-0.072-0.262-0.275
	c0.008-1.44,0.008-2.88-0.001-4.319c-0.001-0.2,0.06-0.249,0.251-0.245c0.76,0.011,1.52,0.012,2.281-0.001
	c0.199-0.003,0.247,0.06,0.244,0.25c-0.01,0.738-0.004,1.476-0.004,2.213c0,0.701-0.008,1.405,0.005,2.107
	C22.439,36.009,22.383,36.071,22.167,36.067 M24.089,36.067c-0.238,0.005-0.281-0.075-0.28-0.293
	c0.009-1.705,0.005-3.411,0.004-5.117c0-0.577-0.233-0.818-0.812-0.82c-1.302-0.005-2.605-0.005-3.907,0
	c-0.581,0.002-0.814,0.242-0.815,0.818c-0.001,1.683-0.007,3.364,0.006,5.048c0.002,0.273-0.044,0.388-0.348,0.366
	c-0.425-0.03-0.853-0.014-1.279-0.005c-0.155,0.003-0.233-0.028-0.287-0.199c-0.31-0.982-0.976-1.588-1.99-1.786
	c-0.159-0.031-0.178-0.102-0.177-0.23c0.001-2.051,0.002-4.102-0.003-6.153c0-0.136,0.054-0.204,0.159-0.273
	c2.172-1.447,4.343-2.893,6.511-4.345c0.141-0.095,0.239-0.075,0.369,0.013c2.149,1.438,4.301,2.875,6.456,4.304
	c0.141,0.095,0.198,0.188,0.197,0.358c-0.007,1.129-0.007,2.259,0,3.388c0.001,0.156-0.048,0.248-0.179,0.333
	c-0.465,0.297-0.922,0.607-1.379,0.917c-1.34,0.906-1.357,2.602-0.035,3.544c0.036,0.025,0.083,0.038,0.084,0.127
	C25.61,36.061,24.849,36.052,24.089,36.067 M37.1,43.998c0.002,0.193-0.049,0.251-0.246,0.248c-0.76-0.012-1.521-0.012-2.28,0
	c-0.196,0.003-0.251-0.052-0.248-0.247c0.013-0.727,0.004-1.452,0.004-2.179c0-0.726,0.007-1.452-0.004-2.18
	c-0.003-0.192,0.049-0.25,0.246-0.247c0.761,0.013,1.522,0.012,2.282,0c0.195-0.003,0.248,0.052,0.248,0.247
	C37.094,41.094,37.094,42.546,37.1,43.998 M42.268,44.248c-1.176-0.016-2.352-0.013-3.527-0.001
	c-0.216,0.002-0.266-0.055-0.266-0.267c0.011-1.718,0.006-3.436,0.006-5.153c0-0.57-0.244-0.812-0.823-0.812
	c-1.302-0.001-2.604-0.001-3.908,0c-0.555,0-0.803,0.245-0.803,0.794c-0.001,1.706-0.007,3.413,0.006,5.119
	c0.002,0.257-0.058,0.323-0.317,0.319c-1.142-0.016-2.283-0.021-3.425,0.002c-0.304,0.005-0.349-0.093-0.346-0.366
	c0.015-1.314,0.007-2.628,0.007-3.942s0.005-2.629-0.006-3.943c-0.002-0.208,0.055-0.333,0.229-0.447
	c2.137-1.417,4.271-2.838,6.399-4.268c0.179-0.12,0.29-0.1,0.451,0.01c2.122,1.419,4.245,2.835,6.374,4.245
	c0.172,0.114,0.24,0.231,0.24,0.44c-0.006,2.652-0.006,5.305,0,7.955C42.561,44.162,42.525,44.251,42.268,44.248 M44.313,33.554
	c0.47,0.314,0.52,0.844,0.123,1.152c-0.12,0.094-0.258,0.154-0.401,0.134c-0.228,0.023-0.384-0.092-0.549-0.201
	c-2.39-1.595-4.782-3.187-7.175-4.779c-0.531-0.354-0.668-0.353-1.209,0.009c-2.373,1.581-4.743,3.163-7.115,4.743
	c-0.133,0.089-0.259,0.192-0.423,0.223c-0.337,0.063-0.636-0.084-0.771-0.382c-0.147-0.323-0.054-0.644,0.276-0.866
	c0.847-0.573,1.7-1.138,2.551-1.705c1.865-1.243,3.732-2.482,5.594-3.731c0.338-0.228,0.647-0.239,0.985-0.014
	C38.902,29.942,41.609,31.745,44.313,33.554 M37.096,27.054c-0.94-0.665-1.836-0.67-2.767,0.003v-2.843
	c0-0.288,0.013-0.576-0.003-0.865c-0.011-0.208,0.027-0.299,0.271-0.293c0.748,0.019,1.498,0.008,2.246,0.007
	c0.14,0,0.262-0.029,0.258,0.2C37.09,24.505,37.096,25.747,37.096,27.054 M42.262,27.87c-1.164-0.015-2.33-0.017-3.494,0
	c-0.254,0.004-0.293-0.079-0.293-0.311c0.011-1.693,0.006-3.388,0.006-5.085c0-0.562-0.252-0.826-0.816-0.83
	c-1.302-0.005-2.605-0.005-3.908,0.002c-0.562,0.002-0.81,0.267-0.81,0.835c-0.001,1.694-0.005,3.389,0.005,5.083
	c0.001,0.236-0.049,0.312-0.298,0.306c-0.747-0.021-1.495-0.007-2.328-0.007c1.356-0.922,1.308-2.315,0.679-3.135
	c-0.128-0.165-0.273-0.31-0.447-0.427c-0.248-0.168-0.494-0.336-0.741-0.505c-0.312-0.214-0.737-0.365-0.9-0.66
	c-0.156-0.285-0.043-0.719-0.044-1.087c-0.002-0.808,0.004-1.615-0.004-2.421c-0.002-0.187,0.038-0.309,0.208-0.422
	c2.147-1.422,4.288-2.851,6.426-4.285c0.16-0.108,0.271-0.102,0.429,0.004c2.14,1.434,4.283,2.862,6.43,4.286
	c0.154,0.103,0.199,0.214,0.199,0.394c-0.006,2.651-0.006,5.302,0,7.951C42.561,27.793,42.512,27.873,42.262,27.87"/>
<path fill="#0B8548" d="M30.78,14.598c0.375,0.015,0.704-0.304,0.711-0.687c0.009-0.376-0.306-0.709-0.681-0.72
	c-0.369-0.013-0.699,0.311-0.704,0.689C30.1,14.276,30.391,14.585,30.78,14.598"/>
<path fill="#0B8548" d="M16.123,22.783c0.365,0.008,0.698-0.324,0.702-0.699c0.004-0.386-0.305-0.702-0.69-0.707
	c-0.382-0.005-0.695,0.307-0.697,0.694C15.437,22.46,15.74,22.775,16.123,22.783"/>
<path fill="#0B8548" d="M35.717,34.582c-0.377-0.003-0.693,0.314-0.695,0.699c-0.002,0.383,0.313,0.708,0.688,0.711
	c0.371,0.003,0.693-0.322,0.695-0.702C36.406,34.905,36.096,34.585,35.717,34.582"/>
<path fill="#0B8548" d="M35.71,18.231c-0.388,0.002-0.69,0.309-0.688,0.7c0.002,0.398,0.293,0.688,0.694,0.687
	c0.397-0.001,0.691-0.295,0.688-0.693C36.404,18.534,36.1,18.23,35.71,18.231"/>
<path fill="#0B8548" d="M21.033,26.402c-0.377,0.01-0.684,0.335-0.678,0.719c0.006,0.388,0.318,0.688,0.706,0.681
	c0.39-0.007,0.683-0.314,0.678-0.71C21.732,26.713,21.405,26.392,21.033,26.402"/>
</svg>
