<?xml version="1.0" encoding="utf-8"?>
<!-- Generator: Adobe Illustrator 15.0.0, SVG Export Plug-In . SVG Version: 6.00 Build 0)  -->
<!DOCTYPE svg PUBLIC "-//W3C//DTD SVG 1.1//EN" "http://www.w3.org/Graphics/SVG/1.1/DTD/svg11.dtd">
<svg version="1.1" id="Capa_1" xmlns="http://www.w3.org/2000/svg" xmlns:xlink="http://www.w3.org/1999/xlink" x="0px" y="0px"
	 width="56.69px" height="56.69px" viewBox="0 0 56.69 56.69" enable-background="new 0 0 56.69 56.69" xml:space="preserve">
<path fill="#0B8548" d="M44.261,30.058c-0.815-1.637-2.964-2.009-4.284-0.719c-1.369,1.338-2.713,2.704-4.066,4.058
	c-0.076,0.076-0.156,0.149-0.262,0.248c0.33-3.576-2.468-5.452-4.541-5.564c-2.636-0.139-5.185,1.919-5.165,5.017
	c-0.046-0.009-0.094-0.008-0.132-0.023c-0.157-0.074-0.315-0.144-0.463-0.229c-0.948-0.556-1.961-0.903-3.064-0.938
	c-2.094-0.068-3.864,0.668-5.327,2.168c-1.441,1.478-2.893,2.944-4.342,4.416c-0.552,0.562-0.542,0.885,0.054,1.397
	c2.214,1.906,4.428,3.812,6.643,5.714h0.553c0.391-0.381,0.783-0.761,1.171-1.145c0.418-0.414,0.84-0.824,1.244-1.252
	c0.157-0.166,0.32-0.22,0.543-0.22c2.745,0.005,5.491-0.011,8.236,0.009c1.9,0.013,3.493-0.651,4.826-1.998
	c1.786-1.803,3.59-3.588,5.385-5.381c0.816-0.815,1.639-1.625,2.446-2.447C44.574,32.294,44.777,31.093,44.261,30.058
	 M30.156,29.546c2.258-0.367,4.16,1.272,4.104,3.544c-0.012,0.475-0.134,0.928-0.373,1.4c-0.693-0.838-1.587-1.082-2.604-1.061
	c-1.176,0.023-2.35-0.009-3.525,0.016c-0.316,0.006-0.381-0.111-0.399-0.382C27.251,31.449,28.55,29.808,30.156,29.546
	 M42.65,32.261c-1.987,1.978-3.967,3.959-5.951,5.938c-0.619,0.621-1.242,1.237-1.86,1.859c-1.024,1.032-2.256,1.547-3.715,1.534
	c-1.407-0.011-2.814-0.002-4.222-0.002c-1.43,0-2.86,0.021-4.29-0.011c-0.506-0.01-0.872,0.144-1.211,0.512
	c-0.539,0.584-1.125,1.126-1.678,1.697c-0.133,0.138-0.207,0.14-0.351,0.016c-1.744-1.508-3.492-3.011-5.245-4.507
	c-0.159-0.136-0.14-0.203-0.007-0.338c1.347-1.36,2.679-2.735,4.03-4.091c1.614-1.621,4.303-2.125,6.417-0.852
	c1,0.602,2.104,0.842,3.264,0.842c1.315-0.002,2.63-0.009,3.944,0.006c0.69,0.006,1.191,0.492,1.291,1.199
	c0.084,0.594-0.328,1.202-0.941,1.402c-0.193,0.064-0.389,0.05-0.581,0.05c-1.95,0.003-3.899,0.002-5.848,0.002
	c-0.15,0-0.299-0.006-0.443,0.052c-0.311,0.127-0.483,0.352-0.468,0.689c0.014,0.32,0.19,0.531,0.496,0.633
	c0.157,0.051,0.318,0.049,0.479,0.049c1.904,0,3.807,0,5.71,0c1.455-0.002,2.308-0.572,2.868-1.923
	c0.046-0.112,0.125-0.192,0.207-0.274c2.111-2.11,4.221-4.225,6.337-6.334c0.761-0.756,1.912-0.504,2.198,0.483
	C43.236,31.436,43.04,31.873,42.65,32.261"/>
<path fill="#0B8548" d="M19.063,27.025c1.838,0.438,3.856-0.331,4.984-1.92c0.148-0.208,0.293-0.268,0.533-0.267
	c3.045,0.008,6.091,0.005,9.136,0.005h9.031c0.697,0,0.922-0.228,0.922-0.936V13.112c0-0.726,0.006-1.453-0.002-2.18
	c-0.006-0.476-0.285-0.759-0.748-0.759c-3.091-0.002-6.182-0.001-9.272-0.003c-0.156,0-0.298,0.027-0.425,0.118
	c-0.275,0.2-0.364,0.48-0.265,0.793c0.101,0.313,0.339,0.476,0.681,0.476c1.639-0.002,3.276,0.003,4.914-0.006
	c0.213-0.002,0.293,0.065,0.345,0.262c0.427,1.666,1.491,2.702,3.149,3.126c0.155,0.04,0.213,0.095,0.213,0.25
	c-0.004,1.545-0.004,3.09-0.002,4.636c0.002,0.154-0.055,0.21-0.209,0.249c-1.677,0.427-2.738,1.477-3.16,3.158
	c-0.043,0.171-0.112,0.231-0.299,0.231c-4.498-0.006-8.998-0.006-13.497,0c-0.22,0-0.269-0.045-0.224-0.268
	c0.238-1.15,0.049-2.243-0.516-3.264c-1.047-1.893-3.2-2.85-5.313-2.37c-0.212,0.048-0.301,0.035-0.294-0.224
	c0.019-0.703,0.012-1.407,0.004-2.111c-0.002-0.179,0.047-0.243,0.237-0.292c1.646-0.424,2.693-1.472,3.124-3.114
	c0.062-0.234,0.148-0.27,0.36-0.268c1.626,0.008,3.253,0.005,4.879,0.003c0.428-0.001,0.746-0.305,0.744-0.695
	c-0.002-0.39-0.319-0.688-0.751-0.688c-3.091-0.002-6.183,0-9.274-0.003c-0.209,0-0.381,0.063-0.526,0.21
	c-0.199,0.199-0.204,0.453-0.204,0.708c0,2.295-0.003,4.591,0.004,6.885c0.001,0.226-0.063,0.372-0.244,0.521
	c-1.439,1.187-2.047,2.725-1.78,4.564C15.6,25.012,17.093,26.556,19.063,27.025 M42.059,13.495
	c-0.914-0.335-1.506-0.969-1.797-1.939c0.629,0,1.226,0,1.82-0.002c0.106,0,0.178,0.014,0.176,0.146
	c-0.002,0.565-0.004,1.13,0.002,1.694C42.262,13.59,42.146,13.527,42.059,13.495 M41.979,21.542
	c0.215-0.087,0.294-0.052,0.284,0.203c-0.021,0.495-0.01,0.991-0.004,1.486c0,0.146-0.012,0.236-0.198,0.232
	c-0.589-0.011-1.175-0.004-1.802-0.004C40.547,22.51,41.116,21.894,41.979,21.542 M18.935,11.553c0.529,0.008,1.058,0.01,1.587,0
	c0.196-0.004,0.207,0.071,0.15,0.223c-0.338,0.896-0.958,1.485-1.921,1.778c0-0.63,0.004-1.215-0.003-1.801
	C18.747,11.611,18.777,11.55,18.935,11.553 M20.112,18.827c1.892,0.003,3.434,1.553,3.437,3.452
	c0.002,1.902-1.532,3.451-3.426,3.462c-1.9,0.012-3.458-1.554-3.453-3.468C16.674,20.375,18.224,18.824,20.112,18.827"/>
<path fill="#0B8548" d="M26.435,17.514c0.003,2.252,1.832,4.075,4.083,4.071c2.215-0.005,4.056-1.845,4.066-4.07
	c0.01-2.227-1.848-4.087-4.083-4.087C28.254,13.428,26.432,15.259,26.435,17.514 M33.163,17.517
	c-0.003,1.469-1.176,2.648-2.647,2.662c-1.461,0.014-2.688-1.202-2.69-2.667c-0.002-1.469,1.207-2.678,2.678-2.678
	C31.982,14.833,33.166,16.029,33.163,17.517"/>
<path fill="#0B8548" d="M39.152,18.196c0.381-0.005,0.678-0.308,0.688-0.676c0.01-0.377-0.297-0.694-0.693-0.704
	c-0.311-0.008-0.621-0.001-0.932-0.001c-0.322,0-0.645-0.007-0.966,0.002c-0.378,0.01-0.681,0.314-0.69,0.676
	c-0.01,0.371,0.305,0.699,0.697,0.704C37.888,18.205,38.521,18.205,39.152,18.196"/>
<path fill="#FFFFFF" d="M30.516,11.555c0.381-0.006,0.701-0.331,0.691-0.706c-0.008-0.377-0.333-0.683-0.719-0.678
	c-0.391,0.005-0.69,0.315-0.682,0.705C29.813,11.268,30.12,11.562,30.516,11.555"/>
</svg>
