<?xml version="1.0" encoding="utf-8"?>
<!-- Generator: Adobe Illustrator 15.0.0, SVG Export Plug-In . SVG Version: 6.00 Build 0)  -->
<!DOCTYPE svg PUBLIC "-//W3C//DTD SVG 1.1//EN" "http://www.w3.org/Graphics/SVG/1.1/DTD/svg11.dtd">
<svg version="1.1" id="Capa_3" xmlns="http://www.w3.org/2000/svg" xmlns:xlink="http://www.w3.org/1999/xlink" x="0px" y="0px"
	 width="56.69px" height="56.69px" viewBox="0 0 56.69 56.69" enable-background="new 0 0 56.69 56.69" xml:space="preserve">
<path fill="#0B8548" d="M41.676,36.977c-0.953-2.346-2.637-4.067-4.699-5.465c-1.029-0.697-2.148-1.243-3.184-1.927
	c-0.435-0.286-0.85-0.598-1.148-1.034c-0.279-0.407-0.262-0.699,0.085-1.046c0.61-0.607,1.405-0.915,2.177-1.348v2.345
	c0,0.104-0.005,0.208,0.006,0.311c0.039,0.434,0.313,0.702,0.703,0.697c0.389-0.004,0.666-0.278,0.674-0.717
	c0.016-0.738,0.006-1.476,0.006-2.214c0-0.62,0-0.62,0.596-0.738c2.667-0.528,4.758-3.048,4.768-5.763
	c0.008-2.039-0.642-3.903-1.563-5.686c-0.575-1.115-1.293-2.125-2.303-2.896c-0.961-0.734-2.023-1.037-3.205-0.64
	c-0.945,0.318-1.67,0.96-2.283,1.725c-1.443,1.796-2.283,3.866-2.66,6.119c-0.355,2.13,0.186,4.013,1.74,5.562
	c0.515,0.513,1.119,0.897,1.811,1.227c-0.525,0.321-1.021,0.607-1.426,1.021c-0.852,0.87-0.926,1.917-0.207,2.898
	c0.24,0.328,0.528,0.608,0.84,0.866c0.748,0.62,1.611,1.061,2.445,1.544c1.492,0.863,2.927,1.813,4.013,3.175
	c2.263,2.842,2.921,5.968,1.574,9.424c-0.097,0.246-0.231,0.325-0.487,0.325c-6.261-0.006-12.521-0.004-18.782-0.007
	c-0.106,0-0.256,0.063-0.309-0.075c-0.057-0.148,0.11-0.184,0.191-0.247c1.199-0.915,2.408-1.815,3.601-2.738
	c1.052-0.815,1.88-1.783,2.109-3.161c0.23-1.383-0.053-2.583-1.15-3.525c-0.235-0.203-0.463-0.418-0.718-0.594
	c-0.201-0.14-0.174-0.221-0.029-0.389c1.035-1.196,1.557-2.592,1.503-4.178c-0.05-1.429-0.435-2.786-0.992-4.092
	c-0.143-0.335-0.062-0.44,0.243-0.499c0.034-0.007,0.068-0.011,0.101-0.022c1.154-0.372,2.348-0.529,3.545-0.682
	c0.427-0.054,0.677-0.369,0.635-0.755c-0.04-0.37-0.39-0.659-0.782-0.617c-1.441,0.155-2.872,0.365-4.238,0.874
	c-0.242,0.09-0.328,0.016-0.445-0.177c-0.614-1.015-1.339-1.935-2.374-2.555c-1.132-0.677-2.28-0.692-3.432-0.038
	c-0.652,0.369-1.187,0.874-1.648,1.454c-1.338,1.676-2.134,3.604-2.563,5.689c-0.317,1.539-0.221,3.041,0.543,4.456
	c0.639,1.184,1.567,2.062,2.774,2.647c0.268,0.131,0.533,0.132,0.78-0.054c0.226-0.171,0.288-0.408,0.248-0.676
	c-0.045-0.298-0.27-0.432-0.511-0.561c-1.74-0.932-2.665-2.381-2.6-4.361c0.071-2.146,0.866-4.066,2.046-5.836
	c0.38-0.568,0.837-1.071,1.412-1.453c0.791-0.527,1.585-0.537,2.384-0.011c0.418,0.276,0.778,0.615,1.083,1.009
	c1.324,1.709,2.078,3.65,2.377,5.787c0.333,2.391-1.248,4.688-3.6,5.225c-0.351,0.08-0.367-0.022-0.366-0.313
	c0.011-1.914,0.008-3.828,0.004-5.742c-0.001-0.479-0.279-0.783-0.686-0.78c-0.408,0.003-0.689,0.311-0.694,0.785
	c-0.007,0.749-0.001,1.499-0.004,2.248c0,0.096,0.032,0.2-0.005,0.253c-0.43-0.405-0.858-0.804-1.279-1.209
	c-0.191-0.184-0.395-0.321-0.673-0.272c-0.27,0.049-0.455,0.198-0.549,0.463c-0.107,0.302,0.002,0.543,0.206,0.752
	c0.693,0.71,1.384,1.42,2.089,2.117c0.161,0.16,0.218,0.322,0.217,0.545c-0.007,1.752-0.004,3.506-0.005,5.257
	c0,0.162-0.005,0.324,0.058,0.478c0.116,0.28,0.317,0.442,0.63,0.449c0.313,0.006,0.534-0.145,0.644-0.426
	c0.053-0.133,0.05-0.292,0.051-0.44c0.004-0.818,0.001-1.638,0.002-2.456c0-0.122-0.031-0.255,0.165-0.277
	c0.822-0.096,1.578-0.382,2.281-0.812c0.1-0.061,0.175-0.064,0.27,0.012c0.441,0.351,0.902,0.681,1.277,1.106
	c0.241,0.273,0.404,0.582,0.436,0.955c0.088,1-0.136,1.894-0.861,2.626c-0.326,0.327-0.674,0.629-1.042,0.907
	c-1.174,0.891-2.36,1.767-3.518,2.678c-0.938,0.737-0.731,2.079,0.366,2.547c0.047,0.021,0.121-0.001,0.128,0.083h19.994
	c0.603-0.234,1.013-0.632,1.263-1.254C42.81,42.217,42.738,39.594,41.676,36.977 M30.935,19.997
	c-0.013-1.646,0.509-3.161,1.207-4.623c0.453-0.95,1.013-1.832,1.804-2.547c1.122-1.015,2.219-1.014,3.336,0.015
	c0.985,0.908,1.615,2.052,2.118,3.271c0.529,1.281,0.905,2.6,0.882,4.007c-0.037,2.065-1.732,4.041-3.771,4.39
	c-0.186,0.032-0.221-0.023-0.217-0.188c0.008-0.38,0.01-0.762-0.002-1.142c-0.004-0.162,0.088-0.251,0.186-0.35
	c0.711-0.724,1.419-1.449,2.133-2.17c0.217-0.219,0.29-0.476,0.202-0.759c-0.082-0.263-0.285-0.413-0.558-0.455
	c-0.262-0.04-0.463,0.08-0.645,0.256c-0.421,0.408-0.847,0.811-1.314,1.255c0-0.706,0.002-1.392,0-2.078
	c-0.002-0.219,0.004-0.439-0.024-0.654c-0.043-0.342-0.332-0.586-0.663-0.588c-0.316-0.002-0.597,0.22-0.664,0.546
	c-0.029,0.145-0.035,0.296-0.035,0.445c-0.002,1.856-0.004,3.712,0.002,5.568c0.002,0.254-0.008,0.357-0.328,0.284
	C32.482,24.007,30.951,22.15,30.935,19.997"/>
<path fill="#0B8548" d="M29.839,31.434c0.252,0.234,0.521,0.454,0.794,0.664c0.971,0.742,2.08,1.261,3.112,1.903
	c1.395,0.87,2.639,1.885,3.429,3.368c0.193,0.365,0.335,0.753,0.487,1.135c0.134,0.34,0.471,0.494,0.817,0.41
	c0.286-0.069,0.498-0.352,0.5-0.674c-0.014-0.105-0.031-0.214-0.067-0.326c-0.331-0.994-0.849-1.879-1.523-2.676
	c-1.065-1.261-2.417-2.15-3.832-2.954c-0.978-0.558-1.967-1.095-2.803-1.869c-0.313-0.29-0.724-0.256-0.985,0.034
	C29.512,30.733,29.531,31.15,29.839,31.434"/>
<path fill="#0B8548" d="M27.75,37.501c-0.046,0.201-0.06,0.408-0.092,0.612c-0.174,1.105-0.646,2.066-1.388,2.903
	c-0.3,0.339-0.269,0.751,0.033,1.012c0.288,0.248,0.703,0.22,0.984-0.088c1.1-1.204,1.691-2.626,1.811-4.296
	c0.008-0.341-0.229-0.634-0.591-0.68C28.132,36.917,27.837,37.118,27.75,37.501"/>
</svg>
