<?xml version="1.0" encoding="utf-8"?>
<!-- Generator: Adobe Illustrator 15.0.0, SVG Export Plug-In . SVG Version: 6.00 Build 0)  -->
<!DOCTYPE svg PUBLIC "-//W3C//DTD SVG 1.1//EN" "http://www.w3.org/Graphics/SVG/1.1/DTD/svg11.dtd">
<svg version="1.1" id="Capa_1" xmlns="http://www.w3.org/2000/svg" xmlns:xlink="http://www.w3.org/1999/xlink" x="0px" y="0px"
	 width="56.69px" height="56.69px" viewBox="0 0 56.69 56.69" enable-background="new 0 0 56.69 56.69" xml:space="preserve">
<path fill="#0B8548" d="M28.655,46.091c-0.425-0.364-0.436-0.62-0.037-1.024c3.241-3.283,6.313-6.717,9.166-10.344
	c0.151-0.193,0.221-0.379,0.217-0.625c-0.01-1.269-0.004-2.537-0.004-3.805c-0.002-0.54-0.209-0.747-0.75-0.75
	c-0.25-0.002-0.5,0-0.773,0.025c0.938,0.412,0.71,1.207,0.632,1.91c-0.078,0.696-0.542,1.121-1.216,1.293
	c-0.857,0.221-1.789-0.418-1.909-1.295c-0.049-0.357-0.049-0.715-0.019-1.071c0.043-0.485,0.359-0.779,0.841-0.775
	c0.207,0.001,0.321-0.042,0.42-0.249c0.231-0.485,0.631-0.779,1.168-0.871c0.458-0.078,0.919-0.077,1.373,0.012
	c0.69,0.136,1.255,0.785,1.269,1.49c0.018,0.979,0.004,1.959,0.004,2.93c0.07,0.039,0.099-0.002,0.125-0.037
	c1.707-2.342,3.322-4.743,4.549-7.381c0.541-1.166,0.978-2.367,1.22-3.639c0.34-1.791-0.13-3.366-1.175-4.806
	c-1.166-1.607-2.723-2.763-4.407-3.764c-1.047-0.624-2.142-1.156-3.272-1.608c-0.418-0.167-0.548-0.539-0.301-0.843
	c0.199-0.245,0.449-0.233,0.719-0.126c2.024,0.813,3.928,1.841,5.643,3.199c1.275,1.009,2.377,2.17,3.152,3.62
	c0.934,1.74,0.984,3.549,0.485,5.418c-0.586,2.196-1.622,4.185-2.778,6.122c-1.14,1.907-2.429,3.715-3.773,5.482
	c-0.126,0.166-0.184,0.326-0.182,0.535c0.01,0.865,0.016,1.729-0.004,2.594c-0.006,0.27,0.078,0.345,0.33,0.316
	c0.182-0.02,0.369-0.01,0.553-0.002c0.398,0.019,0.601,0.207,0.611,0.599c0.014,0.495,0.014,0.991,0,1.487
	c-0.011,0.354-0.259,0.595-0.556,0.58c-0.29-0.014-0.5-0.246-0.513-0.588c-0.01-0.265-0.012-0.531,0-0.795
	c0.009-0.166-0.045-0.218-0.213-0.215c-0.482,0.012-0.967,0.01-1.451,0.001c-0.152-0.002-0.225,0.019-0.223,0.201
	c0.008,1.153,0.006,2.308,0,3.459c0,0.159,0.036,0.224,0.211,0.22c0.482-0.011,0.967-0.013,1.451,0.002
	c0.195,0.004,0.232-0.074,0.225-0.244c-0.01-0.252-0.008-0.506-0.002-0.761c0.012-0.372,0.211-0.596,0.526-0.601
	c0.32-0.006,0.534,0.209,0.544,0.582c0.014,0.484,0.012,0.969,0.002,1.453c-0.011,0.414-0.216,0.609-0.627,0.611
	c-0.922,0.002-1.845,0.004-2.767,0c-0.42-0.002-0.604-0.188-0.606-0.617c-0.005-1.58-0.004-3.158,0-4.738
	c0-0.447,0.178-0.62,0.627-0.637c0.034-0.002,0.069,0,0.104,0c0.734-0.006,0.734-0.006,0.734-0.758v-1.088
	c-0.732,0.879-1.414,1.711-2.11,2.53c-2.084,2.451-4.257,4.821-6.521,7.108c-0.095,0.097-0.197,0.185-0.295,0.276H28.655z
	 M35.017,31c-0.01,0.221-0.021,0.42,0.132,0.573c0.192,0.192,0.414,0.237,0.658,0.11c0.242-0.125,0.363-0.508,0.271-0.896
	c-0.064-0.265-0.287-0.073-0.429-0.12c-0.083-0.027-0.184,0.007-0.272-0.008C35.078,30.611,34.942,30.712,35.017,31"/>
<path fill="#0B8548" d="M10.667,26.304c0.456-0.424,1.066-0.411,1.617-0.544c4.96-1.192,9.899-2.46,14.737-4.092
	c0.835-0.281,1.659-0.596,2.487-0.901c0.438-0.161,0.73-0.095,0.856,0.205c0.142,0.334-0.016,0.596-0.465,0.772
	c-2.614,1.027-5.297,1.844-7.994,2.616c-3.46,0.989-6.951,1.856-10.453,2.681c-0.333,0.078-0.568-0.032-0.786-0.253V26.304z"/>
<path fill="#0B8548" d="M21.303,11.723c-0.563-0.035-0.664,0.058-0.664,0.586c0,1.752,0.007,3.505-0.007,5.257
	c-0.002,0.282,0.084,0.343,0.347,0.337c0.65-0.014,0.782,0.133,0.782,0.793c0.001,1.095,0.003,2.19,0,3.285
	c-0.001,0.549-0.175,0.718-0.725,0.719c-0.634,0.001-1.268,0.003-1.903-0.001c-0.462-0.002-0.648-0.189-0.649-0.647
	c-0.001-1.164-0.001-2.329,0-3.493c0.001-0.485,0.169-0.651,0.668-0.662c0.44-0.01,0.44-0.01,0.44-0.462
	c0-1.753,0-3.505,0.001-5.258c0-0.94,0.564-1.486,1.492-1.516c0.703-0.023,1.31,0.095,1.671,0.774
	c0.064,0.123,0.182,0.078,0.274,0.102c0.4,0.101,0.612,0.322,0.678,0.728c0.154,0.948-0.22,1.661-0.986,1.886
	c-0.801,0.234-1.664-0.381-1.673-1.214C21.044,12.522,20.935,12.078,21.303,11.723 M19.523,20.25c0,0.161-0.007,0.322,0.001,0.482
	c0.014,0.296-0.131,0.702,0.059,0.858c0.18,0.147,0.571,0.023,0.868,0.048c0.231,0.02,0.261-0.08,0.256-0.276
	c-0.012-0.493,0.001-0.987-0.007-1.481c-0.005-0.295,0.13-0.692-0.05-0.861c-0.194-0.182-0.589-0.029-0.894-0.059
	c-0.211-0.021-0.244,0.074-0.237,0.255C19.531,19.56,19.523,19.905,19.523,20.25 M22.341,12.611
	c-0.057,0.026-0.267-0.13-0.261,0.149c0.005,0.209,0.075,0.376,0.295,0.381c0.181,0.005,0.264-0.128,0.276-0.318
	C22.664,12.615,22.581,12.556,22.341,12.611"/>
<path fill="#0B8548" d="M35.369,17.341c-0.027,0.877-0.48,1.598-1.18,2.182c-0.7,0.586-1.51,1-2.332,1.384
	c-0.313,0.146-0.598,0.048-0.734-0.225c-0.134-0.272-0.034-0.57,0.273-0.721c0.494-0.243,0.986-0.487,1.455-0.778
	c0.343-0.214,0.67-0.446,0.946-0.744c0.521-0.563,0.646-1.2,0.354-1.91c-0.342-0.833-0.951-1.459-1.61-2.04
	c-1.267-1.116-2.688-2.002-4.186-2.769c-0.179-0.092-0.347-0.189-0.39-0.402c-0.045-0.22,0.005-0.415,0.194-0.553
	c0.199-0.146,0.408-0.124,0.617-0.017c1.41,0.729,2.764,1.549,4.001,2.551c0.638,0.517,1.233,1.076,1.723,1.736
	C34.996,15.701,35.355,16.422,35.369,17.341"/>
<path fill="#0B8548" d="M27.928,29.564c-0.278-0.006-0.432-0.115-0.523-0.33c-0.095-0.222-0.043-0.431,0.127-0.563
	c0.671-0.52,1.352-1.029,2.042-1.524c0.24-0.172,0.49-0.098,0.672,0.125c0.176,0.214,0.192,0.478-0.015,0.654
	c-0.673,0.574-1.394,1.085-2.118,1.591C28.053,29.561,27.962,29.557,27.928,29.564"/>
<path fill="#0B8548" d="M38.818,15.67c-0.024,0.194-0.113,0.357-0.304,0.457c-0.21,0.109-0.417,0.08-0.571-0.08
	c-0.572-0.598-1.175-1.163-1.789-1.718c-0.213-0.193-0.207-0.45-0.022-0.681c0.183-0.226,0.466-0.28,0.703-0.091
	c0.675,0.538,1.307,1.124,1.864,1.785C38.775,15.432,38.814,15.539,38.818,15.67"/>
<path fill="#0B8548" d="M31.811,26.65c-0.264,0.01-0.43-0.107-0.516-0.312c-0.092-0.22-0.059-0.444,0.134-0.594
	c0.659-0.517,1.321-1.031,1.999-1.524c0.227-0.165,0.484-0.12,0.679,0.104c0.187,0.214,0.187,0.522-0.045,0.708
	c-0.663,0.53-1.345,1.037-2.019,1.552C31.969,26.639,31.879,26.669,31.811,26.65"/>
<path fill="#0B8548" d="M35.141,12.484c0.012,0.407-0.434,0.689-0.783,0.476c-0.715-0.437-1.418-0.896-2.111-1.365
	c-0.238-0.162-0.273-0.418-0.129-0.673c0.139-0.247,0.428-0.339,0.686-0.196c0.742,0.413,1.448,0.886,2.141,1.38
	C35.074,12.199,35.109,12.347,35.141,12.484"/>
<path fill="#0B8548" d="M37.496,21.111c0.232-0.007,0.391,0.101,0.479,0.293c0.09,0.203,0.082,0.427-0.092,0.572
	c-0.658,0.554-1.322,1.103-2.004,1.626c-0.225,0.173-0.49,0.109-0.672-0.12c-0.184-0.23-0.182-0.495,0.038-0.682
	c0.646-0.55,1.312-1.078,1.972-1.614C37.301,21.118,37.404,21.106,37.496,21.111"/>
<path fill="#0B8548" d="M20.065,35.311c-0.25,0.002-0.41-0.123-0.501-0.349c-0.091-0.223-0.025-0.427,0.148-0.558
	c0.669-0.504,1.347-0.998,2.033-1.48c0.244-0.171,0.531-0.096,0.7,0.133c0.174,0.234,0.162,0.515-0.088,0.703
	c-0.668,0.506-1.353,0.989-2.03,1.483C20.247,35.301,20.156,35.303,20.065,35.311"/>
<path fill="#0B8548" d="M18.621,36.248c-0.007,0.172-0.1,0.313-0.245,0.419c-0.631,0.458-1.263,0.916-1.901,1.366
	c-0.29,0.203-0.612,0.152-0.788-0.104c-0.173-0.257-0.12-0.533,0.172-0.748c0.628-0.463,1.262-0.916,1.896-1.373
	c0.182-0.131,0.387-0.156,0.584-0.053C18.522,35.852,18.625,36.016,18.621,36.248"/>
<path fill="#0B8548" d="M12.235,40.99c-0.287,0-0.455-0.109-0.551-0.338c-0.1-0.238-0.027-0.445,0.159-0.583
	c0.665-0.492,1.337-0.976,2.017-1.444c0.252-0.175,0.569-0.095,0.729,0.141c0.156,0.229,0.124,0.524-0.12,0.703
	c-0.665,0.492-1.342,0.967-2.018,1.443C12.38,40.963,12.282,40.975,12.235,40.99"/>
<path fill="#0B8548" d="M26.46,30.477c0.005,0.186-0.066,0.336-0.215,0.445c-0.647,0.477-1.29,0.958-1.944,1.426
	c-0.265,0.189-0.55,0.139-0.735-0.097c-0.174-0.222-0.147-0.545,0.102-0.733c0.658-0.5,1.319-0.996,1.999-1.467
	C26.007,29.814,26.449,30.07,26.46,30.477"/>
<path fill="#0B8548" d="M40.279,18.593c0.02,0.627-0.177,1.154-0.532,1.625c-0.224,0.298-0.524,0.361-0.774,0.18
	c-0.256-0.186-0.301-0.486-0.08-0.785c0.398-0.542,0.404-1.117,0.21-1.73c-0.134-0.425,0.137-0.757,0.55-0.713
	c0.217,0.023,0.354,0.145,0.427,0.345C40.211,17.872,40.299,18.239,40.279,18.593"/>
</svg>
