<?xml version="1.0" encoding="utf-8"?>
<!-- Generator: Adobe Illustrator 15.0.0, SVG Export Plug-In . SVG Version: 6.00 Build 0)  -->
<!DOCTYPE svg PUBLIC "-//W3C//DTD SVG 1.1//EN" "http://www.w3.org/Graphics/SVG/1.1/DTD/svg11.dtd">
<svg version="1.1" id="Capa_1" xmlns="http://www.w3.org/2000/svg" xmlns:xlink="http://www.w3.org/1999/xlink" x="0px" y="0px"
	 width="56.69px" height="56.69px" viewBox="0 0 56.69 56.69" enable-background="new 0 0 56.69 56.69" xml:space="preserve">
<path fill="#0B8548" d="M12.918,15.5c0.112-0.157,0.111-0.353,0.175-0.527c0.484-1.333,1.714-2.132,3.199-2.066
	c1.255,0.057,2.471,1.075,2.768,2.354c0.053,0.23,0.148,0.255,0.342,0.254c2.425-0.005,4.849-0.003,7.274-0.003h16.389
	c0.629,0,0.763,0.132,0.763,0.753c0,0.945,0.002,1.89,0,2.836c0,0.414-0.156,0.617-0.479,0.624
	c-0.335,0.007-0.512-0.204-0.514-0.631c-0.002-0.775-0.006-1.549,0.004-2.323c0.002-0.19-0.039-0.252-0.243-0.252
	c-7.728,0.005-15.454,0.006-23.181-0.003c-0.3,0-0.258,0.151-0.258,0.333c0.002,7.843,0.001,15.688,0.001,23.532
	c0,0.12,0.002,0.242-0.012,0.361c-0.033,0.261-0.239,0.447-0.484,0.447c-0.251,0.002-0.475-0.203-0.491-0.473
	c-0.031-0.535-0.181-1.023-0.543-1.432c-0.64-0.725-1.646-0.928-2.522-0.502c-0.871,0.421-1.344,1.374-1.156,2.33
	c0.179,0.91,0.97,1.604,1.917,1.679c0.131,0.01,0.261,0.013,0.392,0.013c8.733,0,17.466,0.002,26.2,0
	c0.431,0,0.377,0.051,0.377-0.393c0-6.778,0-13.556,0-20.334c0-0.131-0.002-0.264,0.023-0.391c0.053-0.263,0.235-0.388,0.495-0.389
	c0.253-0.001,0.451,0.196,0.474,0.453c0.006,0.07,0,0.141,0,0.211c0,7.06,0,14.12,0.006,21.181c0,0.284-0.069,0.502-0.308,0.659
	H15.455c-0.055-0.108-0.172-0.085-0.258-0.11c-1.062-0.318-1.759-1.012-2.136-2.045c-0.054-0.144-0.043-0.31-0.142-0.439v-5.914
	c0.198-0.18,0.389-0.38,0.697-0.234c0.29,0.138,0.298,0.397,0.297,0.666c-0.003,0.784-0.002,1.569,0.001,2.354
	c0,0.081-0.034,0.176,0.043,0.251c1.407-1.044,2.804-1.024,4.212,0.039v-0.233V16.178c0-0.061,0.002-0.121-0.002-0.182
	c-0.061-0.87-0.449-1.539-1.257-1.901c-0.778-0.348-1.533-0.25-2.205,0.277c-0.599,0.47-0.797,1.118-0.797,1.863
	c0.007,5.459,0.003,10.918,0.006,16.376c0,0.287-0.026,0.563-0.339,0.671c-0.285,0.098-0.497-0.05-0.656-0.282V15.5z"/>
<path fill="#0B8548" d="M30.996,34.879c-2.123,0-4.245,0-6.368-0.001c-0.55,0-0.698-0.144-0.698-0.692
	c-0.001-2.806-0.004-5.609,0.006-8.415c0.001-0.258-0.05-0.342-0.323-0.33c-0.552,0.025-1.106,0.001-1.659,0.01
	c-0.291,0.005-0.527-0.078-0.621-0.368c-0.092-0.284,0.071-0.471,0.296-0.626c3.006-2.057,6.011-4.117,9.014-6.178
	c0.25-0.171,0.478-0.162,0.722,0.006c3.002,2.06,6.005,4.119,9.008,6.176c0.226,0.155,0.386,0.341,0.289,0.628
	c-0.093,0.275-0.315,0.365-0.595,0.362c-0.543-0.007-1.088,0.014-1.629-0.009c-0.289-0.013-0.383,0.045-0.381,0.364
	c0.016,2.755,0.008,5.51,0.008,8.264c0,0.07,0.002,0.141,0,0.212c-0.014,0.432-0.178,0.595-0.611,0.596
	c-1.257,0.002-2.516,0.001-3.771,0.001H30.996z M38.559,24.436c-0.135-0.095-0.203-0.146-0.273-0.193
	c-2.342-1.605-4.686-3.207-7.023-4.82c-0.19-0.132-0.311-0.146-0.512-0.008c-2.021,1.398-4.051,2.783-6.078,4.171
	c-0.389,0.267-0.777,0.538-1.23,0.85h0.804c0.526,0.001,0.686,0.158,0.686,0.676c0.001,2.825,0.003,5.649-0.005,8.473
	c-0.001,0.243,0.045,0.317,0.305,0.317c3.841-0.01,7.682-0.012,11.524,0.002c0.285,0.001,0.316-0.092,0.316-0.338
	c-0.008-2.814-0.006-5.628-0.006-8.443c0-0.537,0.154-0.686,0.703-0.687H38.559z"/>
<path fill="#0B8548" d="M31.008,36.504c2.988,0,5.977,0,8.965,0.001c0.559,0,0.715,0.154,0.715,0.713c0,1.106,0,2.213,0,3.319
	c0,0.473-0.181,0.654-0.654,0.656c-0.905,0.002-1.812,0.004-2.717-0.002c-0.358-0.002-0.588-0.215-0.584-0.514
	c0.004-0.297,0.236-0.49,0.596-0.494c0.062-0.002,0.121-0.002,0.182-0.002c0.634,0,1.27-0.008,1.902,0.006
	c0.201,0.004,0.275-0.033,0.271-0.257c-0.016-0.724-0.014-1.448-0.001-2.172c0.004-0.204-0.061-0.251-0.252-0.243
	c-0.382,0.014-0.765,0.01-1.146,0c-0.164-0.005-0.231,0.035-0.221,0.213c0.014,0.271,0.012,0.545,0,0.814
	c-0.017,0.339-0.234,0.559-0.52,0.545c-0.29-0.012-0.473-0.234-0.477-0.58c-0.002-0.262-0.007-0.523,0.004-0.783
	c0.004-0.147-0.022-0.216-0.193-0.209c-0.412,0.012-0.826,0.014-1.238,0c-0.186-0.008-0.213,0.067-0.206,0.225
	c0.011,0.261,0.007,0.523,0.002,0.785c-0.005,0.334-0.209,0.563-0.497,0.563c-0.271,0.001-0.49-0.216-0.507-0.53
	c-0.014-0.272-0.011-0.545-0.001-0.815c0.006-0.157-0.018-0.235-0.205-0.228c-0.402,0.014-0.805,0.01-1.207,0
	c-0.156-0.004-0.212,0.039-0.203,0.2c0.012,0.261,0.008,0.522,0.002,0.784c-0.013,0.365-0.213,0.592-0.511,0.588
	c-0.299-0.003-0.487-0.232-0.491-0.598c0-0.01,0.002-0.02,0-0.03c-0.017-0.308,0.133-0.729-0.059-0.892
	c-0.184-0.155-0.594-0.047-0.902-0.049c-0.67-0.002-0.67,0-0.67,0.66c0,0.131,0.004,0.262-0.001,0.393
	c-0.012,0.293-0.215,0.507-0.483,0.516c-0.254,0.009-0.479-0.176-0.504-0.459c-0.027-0.289-0.023-0.583-0.014-0.874
	c0.006-0.173-0.025-0.25-0.224-0.241c-0.402,0.018-0.805,0.012-1.207,0.002c-0.148-0.003-0.19,0.047-0.185,0.188
	c0.01,0.272,0.011,0.543,0.001,0.815c-0.014,0.354-0.235,0.584-0.529,0.568c-0.288-0.016-0.471-0.238-0.474-0.585
	c-0.002-0.271-0.007-0.544,0.002-0.813c0.004-0.131-0.033-0.176-0.168-0.172c-0.432,0.008-0.865,0.006-1.298,0
	c-0.13-0.002-0.175,0.034-0.17,0.168c0.009,0.291,0.007,0.584,0.001,0.875c-0.006,0.297-0.2,0.51-0.469,0.527
	c-0.264,0.016-0.497-0.18-0.52-0.477c-0.023-0.301-0.016-0.604-0.009-0.904c0.003-0.141-0.029-0.195-0.182-0.191
	c-0.422,0.01-0.845,0.01-1.267,0.002c-0.138-0.004-0.167,0.049-0.166,0.174c0.004,0.774,0.005,1.549,0,2.324
	c-0.001,0.131,0.039,0.182,0.17,0.168c0.07-0.008,0.141-0.002,0.211-0.002c3.854,0,7.708,0.002,11.56-0.001
	c0.245-0.001,0.463,0.03,0.589,0.273c0.139,0.271,0.021,0.579-0.262,0.694c-0.137,0.055-0.276,0.045-0.417,0.045H22.066
	c-0.61,0-0.754-0.141-0.754-0.735c-0.001-1.106-0.001-2.213,0-3.319c0-0.453,0.181-0.634,0.641-0.634
	C24.971,36.504,27.99,36.504,31.008,36.504"/>
<path fill="#0B8548" d="M30.998,28.294c0.676-0.66,1.459-0.91,2.359-0.54c0.82,0.337,1.257,0.984,1.286,1.866
	c0.028,0.862,0.008,1.729,0.005,2.594c-0.001,0.341-0.195,0.563-0.486,0.572c-0.299,0.009-0.518-0.22-0.521-0.574
	c-0.007-0.854,0.003-1.71-0.007-2.563c-0.006-0.549-0.405-0.989-0.926-1.053c-0.526-0.065-1.028,0.269-1.168,0.787
	c-0.031,0.113-0.033,0.237-0.033,0.357c-0.004,0.804,0,1.609-0.002,2.412c-0.002,0.404-0.202,0.645-0.522,0.634
	c-0.308-0.011-0.489-0.242-0.491-0.634c-0.002-0.814,0.002-1.629,0-2.443c-0.004-0.639-0.453-1.11-1.054-1.117
	c-0.619-0.007-1.074,0.457-1.079,1.117c-0.007,0.814-0.002,1.628-0.002,2.441c0,0.232-0.042,0.443-0.265,0.568
	c-0.328,0.184-0.736-0.029-0.739-0.415c-0.011-1.407-0.006-2.815-0.002-4.223c0.001-0.223,0.122-0.374,0.33-0.456
	c0.203-0.081,0.375-0.021,0.523,0.12c0.077,0.073,0.107,0.16,0.262,0.086C29.414,27.373,30.254,27.575,30.998,28.294"/>
<path fill="#0B8548" d="M33.248,26.007c0.347,0,0.597-0.006,0.846,0.002c0.332,0.011,0.557,0.223,0.556,0.51
	c-0.002,0.287-0.229,0.498-0.562,0.501c-0.653,0.006-1.307-0.001-1.961,0.003c-0.245,0.002-0.441-0.087-0.53-0.316
	c-0.088-0.222-0.03-0.426,0.149-0.601c0.572-0.564,1.129-1.145,1.711-1.7c0.213-0.203,0.123-0.318-0.053-0.439
	c-0.365-0.252-0.789-0.021-0.863,0.469c-0.064,0.425-0.471,0.62-0.791,0.38c-0.148-0.113-0.197-0.268-0.195-0.45
	c0.008-0.801,0.691-1.485,1.505-1.501c0.824-0.016,1.549,0.648,1.591,1.452c0.012,0.219-0.07,0.385-0.223,0.533
	C34.055,25.213,33.685,25.578,33.248,26.007"/>
</svg>
