<?xml version="1.0" encoding="utf-8"?>
<!-- Generator: Adobe Illustrator 15.0.0, SVG Export Plug-In . SVG Version: 6.00 Build 0)  -->
<!DOCTYPE svg PUBLIC "-//W3C//DTD SVG 1.1//EN" "http://www.w3.org/Graphics/SVG/1.1/DTD/svg11.dtd">
<svg version="1.1" id="Capa_1" xmlns="http://www.w3.org/2000/svg" xmlns:xlink="http://www.w3.org/1999/xlink" x="0px" y="0px"
	 width="56.69px" height="56.69px" viewBox="0 0 56.69 56.69" enable-background="new 0 0 56.69 56.69" xml:space="preserve">
<path fill="#0B8548" d="M29.436,10.855c0.502,0.089,1.012,0.148,1.504,0.273c4.719,1.198,7.77,4.141,9.041,8.839
	c0.824,3.044,0.215,5.944-1.154,8.721c-1.27,2.574-3.012,4.802-4.973,6.875c-0.92,0.973-1.867,1.92-2.898,2.776
	c-1.555,1.29-3.645,1.316-5.16-0.006c-3.141-2.745-5.926-5.795-7.831-9.556c-0.834-1.645-1.409-3.378-1.528-5.228
	c-0.149-2.313,0.327-4.505,1.474-6.523c1.808-3.178,4.522-5.149,8.089-5.949c0.391-0.088,0.801-0.068,1.179-0.222H29.436z
	 M28.251,12.542c-2.672,0.064-5.108,1.015-7.052,3.039c-2.397,2.497-3.331,5.477-2.688,8.901c0.335,1.785,1.123,3.392,2.074,4.922
	c1.813,2.918,4.141,5.393,6.677,7.685c0.756,0.683,1.465,0.681,2.226-0.003c0.787-0.704,1.552-1.434,2.285-2.191
	c2.1-2.17,4-4.49,5.344-7.218c1.054-2.138,1.6-4.368,1.185-6.768C37.471,16.105,33.243,12.54,28.251,12.542"/>
<path fill="#0B8548" d="M42.383,37.848c-0.348-0.455-0.78-0.812-1.261-1.114c-1.138-0.722-2.399-1.14-3.69-1.481
	c-0.16-0.043-0.33-0.029-0.494,0.01c-0.613,0.148-1.039,0.648-1.059,1.24c1.067,0.34,4.066,1.598,4.989,2.313
	c0.736,0.569,0.437,0.964-0.341,1.563c-0.986,0.762-2.117,1.149-3.257,1.479c-2.898,0.837-5.856,1.086-8.977,1.133
	c-1.238-0.028-2.618-0.085-3.994-0.231c-2.043-0.218-4.062-0.576-6.018-1.304c-0.839-0.311-1.659-0.681-2.358-1.319
	c-0.351-0.319-0.606-0.892-0.265-1.209c0.433-0.401,4.644-2.477,5.154-2.726c-0.217-0.709-0.89-1.101-1.601-0.918
	c-0.33,0.084-0.659,0.177-0.983,0.284c-1.189,0.388-2.344,0.854-3.304,1.686c-0.672,0.584-1.139,1.288-1.163,2.219
	c-0.026,1.014,0.464,1.773,1.2,2.399c0.958,0.817,2.1,1.284,3.282,1.659c2.898,0.918,5.889,1.238,8.909,1.32
	c2.546,0.07,5.084-0.051,7.604-0.454c1.655-0.267,3.287-0.623,4.844-1.263c1.05-0.431,2.046-0.948,2.767-1.865
	C43.197,40.209,43.198,38.913,42.383,37.848"/>
<path fill="#0B8548" d="M23.059,22.818c0-2.956,2.363-5.321,5.315-5.321c2.951,0,5.313,2.367,5.313,5.323
	c-0.002,2.946-2.373,5.305-5.333,5.304C25.427,28.122,23.06,25.751,23.059,22.818 M31.727,22.809
	c-0.002-1.826-1.543-3.36-3.365-3.352c-1.813,0.01-3.326,1.52-3.341,3.333c-0.014,1.822,1.517,3.367,3.344,3.373
	C30.184,26.171,31.727,24.632,31.727,22.809"/>
</svg>
